<?xml version="1.0" standalone="no"?>
<!DOCTYPE svg PUBLIC "-//W3C//DTD SVG 20010904//EN"
 "http://www.w3.org/TR/2001/REC-SVG-20010904/DTD/svg10.dtd">
<svg version="1.0" xmlns="http://www.w3.org/2000/svg"
 width="512.000000pt" height="512.000000pt" viewBox="0 0 512.000000 512.000000"
 preserveAspectRatio="xMidYMid meet">
<metadata>
Created by potrace 1.11, written by Peter Selinger 2001-2013
</metadata>
<g transform="translate(0.000000,512.000000) scale(0.100000,-0.100000)"
fill="#000000" stroke="none">
<path d="M1690 5078 c-116 -118 -453 -612 -820 -1203 -20 -33 -64 -104 -98
-158 -34 -54 -62 -100 -62 -103 0 -3 -11 -20 -25 -38 -14 -18 -25 -36 -25 -40
0 -3 -17 -34 -38 -69 -87 -145 -144 -287 -178 -447 -22 -103 -25 -372 -6 -465
45 -214 125 -390 252 -560 43 -57 241 -243 277 -260 1 0 -9 -37 -23 -80 -57
-184 -74 -437 -39 -601 55 -267 162 -474 336 -654 206 -213 452 -339 754 -387
85 -14 348 -7 432 11 405 86 730 334 908 691 30 61 69 157 85 215 17 58 30
105 30 106 0 0 12 1 28 1 161 2 375 59 541 145 235 122 437 327 556 566 47 94
99 240 108 307 4 22 10 61 15 87 17 89 11 308 -12 413 -53 245 -113 389 -271
655 -53 91 -109 185 -123 210 -41 73 -302 500 -344 563 -21 32 -38 60 -38 63
0 14 -310 462 -362 524 -76 89 -96 96 -145 48 -84 -80 -283 -358 -542 -760
l-134 -207 -32 52 c-18 29 -95 157 -171 285 -76 128 -146 244 -154 257 -8 13
-39 64 -69 112 -284 461 -504 763 -554 763 -8 0 -34 -19 -57 -42z"/>
</g>
</svg>
